<svg width="100" height="100" viewBox="0 0 100 100" fill="none" xmlns="http://www.w3.org/2000/svg">
<g clip-path="url(#clip0_1_42127)">
<mask id="mask0_1_42127" style="mask-type:luminance" maskUnits="userSpaceOnUse" x="0" y="0" width="100" height="100">
<path d="M100 0H0V100H100V0Z" fill="white"/>
</mask>
<g mask="url(#mask0_1_42127)">
<mask id="mask1_1_42127" style="mask-type:luminance" maskUnits="userSpaceOnUse" x="0" y="0" width="100" height="100">
<path d="M100 0H0V100H100V0Z" fill="white"/>
</mask>
<g mask="url(#mask1_1_42127)">
<path d="M18.0156 32.4688C18.0156 32.4688 21.0469 40.2187 11.9766 50.4375C5.35158 57.9219 4.77346 73.3281 19.0078 78.9297C33.2422 84.5312 53.125 75 53.125 75L53.2188 74.2187C53.3246 73.2791 53.293 72.329 53.125 71.3984L69.8828 35.7812" fill="#0A1C40"/>
<path d="M25.3125 32.4453C25.3125 32.4453 22.0469 51.2656 33.125 65.4297C44.2031 79.5938 54.6484 69.8281 54.6484 69.8281L66.4063 60.9375L76.4844 39.2188L58.0234 10.8516L25.3125 32.4453Z" fill="#FBC1A4"/>
<path d="M59.0392 15.2344C59.0392 15.2344 54.1251 30.8594 30.2814 34.8516C16.0392 37.2422 11.4454 30.4688 8.92198 26.4454C8.14073 25.1954 7.96886 22.836 9.32823 23.3204C11.2892 24.1016 17.336 28.3829 21.6329 19.4844C27.7814 6.80474 43.6954 -6.38276 60.3517 5.4688C75.5626 16.2657 59.0392 15.2344 59.0392 15.2344Z" fill="#0A1C40"/>
<path d="M53.6797 12.8829C53.6797 12.8829 57.7422 38.1485 70.9609 46.1876C84.1797 54.2267 79.5547 20.4532 79.5547 20.4532C79.5547 20.4532 72.5234 4.82823 52.8203 5.47667" fill="#0A1C40"/>
<path d="M90.3672 87.2266C91.881 84.4573 92.849 81.4233 93.2188 78.2891C93.3516 77.0703 93.125 77.0078 92.0391 77.3906C89.8125 78.1719 86.9844 79.7891 84.586 78.5C80.9453 76.5312 79.7344 71.9609 80.3282 68.1094C80.9219 64.2578 83.8829 61.5703 85.8594 58.4297C87.836 55.2891 88.7032 51.1094 89.1563 47.4062C91.2188 30.4219 81.086 10.0703 63.4141 6.10937C61.6085 5.64293 59.7473 5.42737 57.8828 5.46875C57.8828 5.46875 60.1563 33.0391 63.5235 38.8437C65.369 41.9382 65.9957 45.6092 65.2813 49.1406C64.5 52.75 61.75 55.7422 59.7266 58.75C55.3672 65.2187 51.1954 72.2187 51.336 80.2891C51.3584 84.1579 52.555 87.9287 54.7676 91.1025C56.9802 94.2762 60.1043 96.7033 63.7266 98.0625C74.1329 101.969 85.2735 96.6797 90.3672 87.2266Z" fill="#0A1C40"/>
<path d="M54.3282 36.7579C54.1441 36.7532 53.9669 36.6867 53.8252 36.5691C53.6835 36.4514 53.5855 36.2895 53.5469 36.1095C53.375 35.3282 52.6563 33.2345 51.4141 32.6798C51.1058 32.5676 50.775 32.5317 50.4498 32.5752C50.1246 32.6188 49.8148 32.7404 49.5469 32.9298C49.452 33.0026 49.3424 33.0539 49.2257 33.0803C49.109 33.1067 48.9879 33.1074 48.8709 33.0826C48.7539 33.0577 48.6436 33.0077 48.5477 32.9362C48.4518 32.8646 48.3726 32.7731 48.3155 32.668C48.2583 32.5629 48.2247 32.4466 48.2168 32.3272C48.2089 32.2078 48.2269 32.0881 48.2697 31.9764C48.3125 31.8647 48.379 31.7635 48.4646 31.68C48.5502 31.5964 48.6529 31.5323 48.7657 31.4923C49.2561 31.1699 49.8182 30.9728 50.4025 30.9183C50.9869 30.8638 51.5757 30.9536 52.1172 31.1798C54.3282 32.1641 55.1016 35.3907 55.1797 35.7579C55.2059 35.8651 55.2091 35.9766 55.1891 36.0851C55.1691 36.1937 55.1263 36.2967 55.0635 36.3875C55.0008 36.4783 54.9195 36.5548 54.8251 36.6119C54.7307 36.669 54.6252 36.7054 54.5157 36.7188H54.3282" fill="#0B1C3F"/>
<path d="M39.7657 55.6954C36.7891 55.5782 34.7735 54.5938 34.2423 53.0001C33.7735 51.5782 36.2579 48.172 38.4219 45.5704C38.5608 45.4026 38.7606 45.2967 38.9774 45.2762C39.1943 45.2557 39.4104 45.3222 39.5782 45.461C39.746 45.5998 39.8518 45.7996 39.8723 46.0165C39.8929 46.2333 39.8264 46.4494 39.6876 46.6173C37.5704 49.1719 35.7813 51.8829 35.7813 52.5391C36.0469 53.3204 37.6719 53.9688 39.7969 54.0548C40.0145 54.0548 40.2231 54.1412 40.377 54.295C40.5308 54.4489 40.6173 54.6575 40.6173 54.8751C40.6173 55.0926 40.5308 55.3013 40.377 55.4551C40.2231 55.609 40.0145 55.6954 39.7969 55.6954" fill="#0A1C40"/>
<path d="M51.2656 41.9609C51.2656 43.9922 50.3828 45.6328 49.2969 45.625C48.2109 45.6172 47.3359 43.9609 47.3359 41.9297C47.3359 39.8984 48.2266 38.2812 49.3125 38.2812C50.3984 38.2812 51.2656 39.9453 51.2656 41.9766" fill="#0B1C3F"/>
<path d="M36.5782 41.797C36.7266 43.8204 35.9766 45.5314 34.8985 45.6173C33.8203 45.7032 32.8125 44.1251 32.6641 42.0939C32.5157 40.0626 33.2657 38.3595 34.375 38.2814C35.4844 38.2032 36.461 39.7735 36.6094 41.8048" fill="#0B1C3F"/>
<path d="M31.6954 35.9376C31.5857 35.9365 31.4772 35.9153 31.3751 35.8751C31.2718 35.8379 31.1775 35.7794 31.0983 35.7033C31.0191 35.6273 30.9569 35.5354 30.9156 35.4337C30.8743 35.332 30.855 35.2227 30.8587 35.113C30.8625 35.0033 30.8894 34.8956 30.9376 34.7969C30.9376 34.6876 32.0548 32.1876 34.2579 31.4532C34.876 31.2659 35.528 31.2178 36.1669 31.3124C36.8058 31.4069 37.4158 31.6418 37.9532 32.0001C38.0461 32.0549 38.1272 32.1276 38.192 32.2138C38.2567 32.3001 38.3039 32.3982 38.3307 32.5027C38.3576 32.6072 38.3636 32.7159 38.3484 32.8227C38.3332 32.9295 38.2972 33.0322 38.2423 33.1251C38.1874 33.2179 38.1148 33.299 38.0285 33.3638C37.9423 33.4286 37.8441 33.4757 37.7396 33.5026C37.6352 33.5294 37.5265 33.5354 37.4197 33.5203C37.3129 33.5051 37.2101 33.469 37.1173 33.4141C36.7811 33.1771 36.3961 33.0183 35.9905 32.9494C35.585 32.8804 35.1692 32.9031 34.7735 33.0157C33.2813 33.5079 32.4298 35.4141 32.4298 35.4376C32.3652 35.59 32.256 35.7193 32.1166 35.8086C31.9772 35.8978 31.814 35.9428 31.6485 35.9376" fill="#0B1C3F"/>
<path d="M48.6173 61.0391C49.3985 63.7578 48.8595 66.3125 47.4064 66.7344C45.9532 67.1563 44.1173 65.2891 43.336 62.5625C42.5548 59.836 43.0939 57.2891 44.547 56.8672C46.0001 56.4453 47.836 58.3125 48.6173 61.0391Z" fill="#ED1F2F"/>
<path d="M27.2579 69.5313C27.2579 69.5313 29.2032 69.0626 30.9141 72.7188C32.6251 76.3751 35.2501 83.7735 33.7032 87.8985C32.1563 92.0235 28.6563 94.5313 23.4376 94.8282C18.2188 95.125 11.7657 91.3282 9.50787 88.836C7.25006 86.3438 5.27349 82.4766 8.24224 80.711C7.82073 80.156 7.57407 79.4881 7.53372 78.7924C7.49337 78.0967 7.66115 77.4047 8.01568 76.8047C8.28383 76.1654 8.73942 75.6224 9.3224 75.2472C9.90537 74.8721 10.5884 74.6824 11.2813 74.7032C10.9805 73.8773 10.9359 72.9798 11.1533 72.1282C11.3708 71.2765 11.8401 70.5103 12.5001 69.9297C13.0814 69.3189 13.8659 68.9413 14.706 68.8679C15.5461 68.7946 16.3841 69.0304 17.0626 69.5313C17.0626 69.5313 14.1485 59.961 15.2579 57.9141C16.3672 55.8672 17.7657 56.25 17.7657 56.25C17.7657 56.25 19.5157 56.1329 20.8907 58.2891C22.2657 60.4454 24.0157 70.6016 25.9063 73.7501C25.9063 73.7501 24.4141 69.8438 27.2891 69.5704" fill="#FBC1A4"/>
<path d="M75.4767 56.0625L78.1876 56.3984C78.6253 56.4546 79.0694 56.3678 79.4538 56.151C79.8381 55.9342 80.1421 55.599 80.3204 55.1953L92.5704 27.5C92.6863 27.2389 92.7463 26.9565 92.7465 26.6709C92.7467 26.3853 92.6871 26.1027 92.5716 25.8415C92.4561 25.5803 92.2872 25.3461 92.0757 25.1541C91.8643 24.9621 91.615 24.8165 91.3439 24.7266L84.0392 22.3047C83.7722 22.2154 83.4896 22.1822 83.2092 22.2071C82.9288 22.232 82.6565 22.3145 82.4094 22.4494C82.1623 22.5844 81.9457 22.7688 81.7731 22.9912C81.6005 23.2137 81.4757 23.4693 81.4064 23.7422L73.0861 53.8203C72.7814 55.0234 74.2501 55.9062 75.4767 56.0625Z" fill="white"/>
<path d="M78.8438 62.8516C78.8438 63.3981 78.736 63.9392 78.5266 64.4439C78.3173 64.9487 78.0104 65.4072 77.6237 65.7933C77.2369 66.1793 76.7778 66.4853 76.2726 66.6937C75.7675 66.9021 75.2261 67.0089 74.6797 67.0079C72.3828 67.0079 69.7578 65.1485 69.7578 62.8516C69.8064 61.6793 70.3063 60.5712 71.153 59.759C71.9996 58.9467 73.1275 58.4932 74.3008 58.4932C75.4741 58.4932 76.6019 58.9467 77.4486 59.759C78.2952 60.5712 78.7951 61.6793 78.8438 62.8516Z" fill="white"/>
<path d="M63.0078 75.1095L63.5625 74.9454C63.8696 74.8557 64.1354 74.6612 64.3139 74.3957C64.4923 74.1301 64.572 73.8105 64.5391 73.4923L62.9766 57.8673C62.8368 57.4118 62.5538 57.0136 62.1694 56.7321C61.7851 56.4505 61.3201 56.3007 60.8437 56.3048L58.5703 57.2188C58.3875 57.2546 58.2139 57.3272 58.0601 57.4322C57.9062 57.5371 57.7752 57.6722 57.6751 57.8293C57.575 57.9863 57.5079 58.1621 57.4778 58.3459C57.4477 58.5297 57.4552 58.7177 57.5 58.8985L60.625 73.9298C60.8203 74.711 62.2578 75.336 63.0078 75.1095Z" fill="white"/>
<path d="M66.4454 78.3595C66.544 78.6626 66.5817 78.9822 66.5565 79.3C66.5313 79.6178 66.4435 79.9274 66.2984 80.2112C66.1532 80.495 65.9534 80.7474 65.7105 80.9538C65.4676 81.1602 65.1864 81.3167 64.8829 81.4142C64.1781 81.573 63.4402 81.4888 62.7892 81.1754C62.1382 80.862 61.6123 80.3376 61.297 79.6876C61.1472 79.027 61.2502 78.3342 61.5856 77.7457C61.9211 77.1572 62.4647 76.7157 63.1095 76.5079C64.3751 76.086 66.0235 77.1251 66.4454 78.3985" fill="white"/>
<path d="M73.6484 55.586L76.3594 55.9298C76.8013 55.9804 77.2477 55.8868 77.6321 55.6629C78.0165 55.439 78.3182 55.0969 78.4922 54.6876L90.7422 27.0313C90.8635 26.7681 90.9277 26.4823 90.9307 26.1925C90.9337 25.9028 90.8753 25.6157 90.7595 25.3501C90.6436 25.0845 90.4729 24.8464 90.2586 24.6514C90.0442 24.4564 89.791 24.309 89.5156 24.2188L82.211 21.7969C81.9439 21.7089 81.6616 21.6766 81.3816 21.702C81.1015 21.7275 80.8297 21.8101 80.5829 21.9449C80.3361 22.0797 80.1196 22.2636 79.9467 22.4854C79.7739 22.7073 79.6485 22.9622 79.5781 23.2344L71.9141 53.0391C71.842 53.3215 71.8308 53.616 71.8812 53.903C71.9317 54.19 72.0426 54.463 72.2066 54.7039C72.3706 54.9448 72.584 55.148 72.8326 55.3001C73.0812 55.4522 73.3593 55.5496 73.6484 55.586Z" fill="#ED1F2F"/>
<path d="M77.0156 62.375C77.0156 63.1986 76.7714 64.0036 76.3139 64.6884C75.8563 65.3732 75.206 65.9069 74.4451 66.2221C73.6842 66.5373 72.8469 66.6197 72.0392 66.4591C71.2314 66.2984 70.4895 65.9018 69.9071 65.3194C69.3248 64.7371 68.9282 63.9951 68.7675 63.1874C68.6068 62.3796 68.6893 61.5424 69.0045 60.7815C69.3196 60.0206 69.8534 59.3703 70.5381 58.9127C71.2229 58.4552 72.028 58.2109 72.8516 58.2109C73.9559 58.2109 75.0151 58.6496 75.796 59.4306C76.5769 60.2115 77.0156 61.2706 77.0156 62.375Z" fill="#ED1F2F"/>
<path d="M61.1797 74.6406L61.7344 74.4688C62.04 74.3793 62.3048 74.1859 62.4831 73.9221C62.6614 73.6582 62.742 73.3404 62.7109 73.0234L61.1484 57.3984C61.1228 57.2107 61.0584 57.0303 60.9593 56.8687C60.8602 56.7072 60.7286 56.568 60.5729 56.46C60.4171 56.352 60.2407 56.2776 60.0546 56.2414C59.8686 56.2053 59.6771 56.2082 59.4922 56.25L56.7109 56.7891C56.5285 56.8239 56.355 56.8956 56.2012 56.9998C56.0474 57.1039 55.9164 57.2383 55.8162 57.3948C55.716 57.5513 55.6488 57.7265 55.6186 57.9098C55.5884 58.0931 55.5959 58.2806 55.6406 58.4609L59.461 73.6953C59.5061 73.8746 59.5869 74.043 59.6986 74.1904C59.8103 74.3377 59.9506 74.4611 60.111 74.553C60.2715 74.6448 60.4488 74.7034 60.6325 74.7252C60.8161 74.747 61.0022 74.7315 61.1797 74.6797" fill="#ED1F2F"/>
<path d="M64.6172 77.8828C64.7636 78.3386 64.7717 78.8274 64.6404 79.2877C64.5092 79.748 64.2445 80.1591 63.8797 80.469C63.515 80.779 63.0666 80.9739 62.5912 81.0292C62.1158 81.0845 61.6346 80.9977 61.2085 80.7797C60.7824 80.5617 60.4304 80.2224 60.197 79.8045C59.9636 79.3867 59.8592 78.909 59.8971 78.4319C59.935 77.9547 60.1134 77.4995 60.4098 77.1237C60.7062 76.7479 61.1074 76.4683 61.5625 76.3203C61.8657 76.2218 62.1853 76.184 62.5031 76.2093C62.8208 76.2345 63.1305 76.3222 63.4143 76.4674C63.6981 76.6125 63.9504 76.8123 64.1569 77.0552C64.3633 77.2981 64.5197 77.5794 64.6172 77.8828Z" fill="#ED1F2F"/>
<path d="M24.3048 87.5391C24.1439 87.5384 23.9882 87.482 23.8643 87.3794C23.7403 87.2769 23.6558 87.1345 23.6251 86.9766C22.5704 81.3594 24.1173 78.7422 24.836 77.8828C25.1132 77.5246 25.4722 77.2379 25.8829 77.0469C25.7666 75.9857 25.5441 74.9387 25.2188 73.9219C25.1676 73.7468 25.1871 73.5586 25.2734 73.3979C25.3596 73.2371 25.5055 73.1167 25.6798 73.0625C25.7659 73.0362 25.8565 73.0272 25.9461 73.0362C26.0358 73.0452 26.1228 73.0719 26.202 73.1148C26.2812 73.1577 26.3512 73.2159 26.4077 73.2861C26.4642 73.3562 26.5063 73.4369 26.5313 73.5235C27.6251 77.1719 27.1719 77.7735 27.0235 77.9688C26.9473 78.0782 26.8456 78.1674 26.7272 78.2287C26.6087 78.2899 26.4772 78.3214 26.3438 78.3203C25.9688 78.4453 23.8204 80.5782 24.9766 86.7266C25.0063 86.9025 24.9655 87.0831 24.8632 87.2292C24.7609 87.3754 24.6052 87.4755 24.4298 87.5078H24.3048" fill="#D57D53"/>
<path d="M18.7891 82.1094C16.9687 82.1094 15.3437 80.8594 14.2656 79.9141C12.9863 78.691 11.8513 77.3253 10.8828 75.8438L10.6719 75.5547C10.6058 75.4825 10.5559 75.397 10.5255 75.304C10.4952 75.211 10.485 75.1126 10.4957 75.0153C10.5064 74.918 10.5378 74.8242 10.5877 74.74C10.6376 74.6558 10.7049 74.5833 10.7851 74.5272C10.8653 74.4711 10.9565 74.4328 11.0527 74.4148C11.1489 74.3968 11.2478 74.3996 11.3429 74.4229C11.4379 74.4462 11.5269 74.4895 11.6038 74.55C11.6808 74.6105 11.7439 74.6866 11.7891 74.7735L12 75.0703C12.9078 76.4654 13.9749 77.7501 15.1797 78.8985C16.1094 79.7266 17.5234 80.8125 18.9062 80.75C19.0863 80.7541 19.2653 80.7223 19.4329 80.6566C19.6006 80.5909 19.7535 80.4925 19.8828 80.3672C19.9781 80.2372 20.0454 80.0888 20.0803 79.9315C20.1153 79.7742 20.1172 79.6113 20.0859 79.4531C19.6728 77.4309 18.5914 75.6065 17.0156 74.2735C16.8733 74.1611 16.7812 73.9971 16.7592 73.8171C16.7373 73.6371 16.7873 73.4558 16.8984 73.3125C17.0122 73.1697 17.1775 73.0774 17.3588 73.0554C17.5401 73.0335 17.7227 73.0838 17.8672 73.1953C19.7276 74.7526 20.9919 76.9057 21.4453 79.2891C21.5022 79.635 21.4857 79.9891 21.3969 80.3283C21.3081 80.6675 21.1489 80.9842 20.9297 81.2578C20.6813 81.5304 20.3783 81.7478 20.0405 81.8958C19.7027 82.0439 19.3376 82.1193 18.9687 82.1172H18.7891" fill="#D57D53"/>
<path d="M15.1095 85.4766C14.8951 85.4757 14.681 85.46 14.4688 85.4298C10.922 84.9923 8.0782 81.6407 7.96101 81.5235C7.90305 81.4543 7.85929 81.3743 7.83224 81.2881C7.80519 81.2019 7.79537 81.1113 7.80335 81.0213C7.81133 80.9314 7.83695 80.8439 7.87875 80.7638C7.92054 80.6838 7.9777 80.6127 8.04695 80.5548C8.1162 80.4968 8.1962 80.453 8.28236 80.426C8.36852 80.3989 8.45917 80.3891 8.54913 80.3971C8.63908 80.4051 8.72659 80.4307 8.80664 80.4725C8.8867 80.5143 8.95774 80.5715 9.0157 80.6407C9.0157 80.6407 11.6329 83.7657 14.6407 84.0938C15.422 84.1876 15.8907 84.0938 16.1407 83.7657C16.5938 83.2188 16.336 82.0235 16.2423 81.7345C16.2141 81.6493 16.2029 81.5594 16.2094 81.47C16.2159 81.3805 16.24 81.2932 16.2803 81.213C16.3616 81.0511 16.5039 80.9282 16.6759 80.8712C16.8478 80.8142 17.0354 80.8279 17.1973 80.9092C17.3592 80.9905 17.4822 81.1328 17.5391 81.3048C17.6095 81.5235 18.1954 83.4298 17.2032 84.6407C16.9433 84.9347 16.6194 85.1651 16.2563 85.3141C15.8933 85.4631 15.501 85.5267 15.1095 85.5001" fill="#D57D53"/>
<path d="M12.5001 89.1876C11.7259 89.1696 10.9591 89.0326 10.2266 88.7813C10.0557 88.7171 9.91725 88.5876 9.8418 88.4213C9.76635 88.255 9.76004 88.0656 9.82427 87.8946C9.88851 87.7237 10.018 87.5853 10.1843 87.5098C10.3506 87.4344 10.5401 87.428 10.711 87.4923C10.711 87.4923 13.2891 88.4142 14.0235 87.1485C14.1104 87.0207 14.1699 86.8763 14.1981 86.7243C14.2264 86.5724 14.2228 86.4162 14.1876 86.2657C14.0042 85.8532 13.6841 85.5165 13.2813 85.3126C13.1253 85.2297 13.0071 85.0899 12.9514 84.9223C12.8957 84.7546 12.9067 84.5719 12.982 84.4121C13.0574 84.2524 13.1914 84.1277 13.3562 84.0641C13.5211 84.0004 13.704 84.0027 13.8672 84.0704C14.6257 84.432 15.2179 85.0689 15.5235 85.8517C15.6215 86.1833 15.6471 86.5321 15.5985 86.8744C15.55 87.2168 15.4285 87.5447 15.2422 87.836C14.9533 88.2913 14.5445 88.6583 14.0608 88.8967C13.5771 89.1351 13.0372 89.2357 12.5001 89.1876Z" fill="#D57D53"/>
<path d="M18.1172 64.2032C17.7029 64.2116 17.2896 64.159 16.8906 64.0469C16.805 64.0203 16.7254 63.977 16.6565 63.9195C16.5875 63.8621 16.5306 63.7917 16.4889 63.7122C16.4471 63.6328 16.4215 63.5459 16.4133 63.4566C16.4052 63.3672 16.4147 63.2771 16.4414 63.1915C16.4681 63.1058 16.5114 63.0262 16.5688 62.9573C16.6262 62.8884 16.6967 62.8314 16.7761 62.7897C16.8556 62.748 16.9424 62.7223 17.0318 62.7142C17.1211 62.706 17.2112 62.7156 17.2969 62.7422C17.8197 62.8612 18.3614 62.8713 18.8883 62.7718C19.4152 62.6724 19.9159 62.4655 20.3594 62.1641C20.4346 62.1149 20.5189 62.081 20.6073 62.0646C20.6957 62.0481 20.7865 62.0494 20.8745 62.0683C20.9624 62.0872 21.0457 62.1233 21.1195 62.1746C21.1934 62.226 21.2563 62.2914 21.3047 62.3673C21.3937 62.5175 21.4215 62.6963 21.3822 62.8665C21.3429 63.0367 21.2396 63.1852 21.0938 63.2813C20.2097 63.8622 19.175 64.1718 18.1172 64.1719" fill="#D57D53"/>
<path d="M19.0235 69.3594C18.6016 69.3594 18.3282 69.3594 18.2891 69.3594C18.1223 69.3233 17.9749 69.2265 17.8756 69.0878C17.7762 68.9491 17.732 68.7784 17.7514 68.6089C17.7709 68.4394 17.8527 68.2832 17.981 68.1707C18.1092 68.0581 18.2748 67.9973 18.4454 68C19.4662 68.1092 20.4969 67.9221 21.4141 67.4609C21.567 67.3624 21.7523 67.3276 21.9305 67.3641C22.1087 67.4006 22.2655 67.5055 22.3672 67.6563C22.4658 67.8091 22.5006 67.9945 22.464 68.1727C22.4275 68.3508 22.3227 68.5076 22.1719 68.6094C21.222 69.1524 20.1406 69.4227 19.0469 69.3906" fill="#D57D53"/>
</g>
</g>
</g>
<defs>
<clipPath id="clip0_1_42127">
<rect width="100" height="100" fill="white"/>
</clipPath>
</defs>
</svg>
