<svg width="24" height="24" viewBox="0 0 24 24" fill="none" xmlns="http://www.w3.org/2000/svg">
<path fill-rule="evenodd" clip-rule="evenodd" d="M3.02708 3.68192C3.14764 3.19971 3.63627 2.90653 4.11848 3.02708L6.35502 3.58622C7.42887 3.85468 8.21636 4.74532 8.37201 5.81564L19.4542 7.39881C20.341 7.52549 20.9996 8.28494 20.9996 9.1807V12.0001C20.9996 12.9942 20.1937 13.8001 19.1996 13.8001H9.08764C9.58203 14.3524 10.3005 14.7001 11.1001 14.7001H20.1C20.5971 14.7001 21 15.103 21 15.6001C21 16.0971 20.5971 16.5 20.1 16.5H19.4123C19.8398 16.9777 20.0998 17.6085 20.0998 18.3C20.0998 19.7912 18.891 21 17.3998 21C15.9087 21 14.6999 19.7912 14.6999 18.3C14.6999 17.6085 14.9598 16.9777 15.3874 16.5H11.3124C11.7399 16.9777 11.9999 17.6085 11.9999 18.3C11.9999 19.7912 10.7911 21 9.29993 21C7.80877 21 6.59996 19.7912 6.59996 18.3C6.59996 17.0701 7.42238 16.0322 8.5473 15.7064C7.37103 14.8946 6.60017 13.5374 6.60017 12.0001V11.4577C7.14946 11.7975 7.78525 11.9985 8.3927 12.0001H19.1996V9.1807L8.40015 7.63792V10.6501C7.97757 10.6501 7.45197 10.46 7.0328 10.1097C6.85561 9.96161 6.70939 9.79557 6.60017 9.61701V6.20557C6.60017 5.79259 6.31911 5.43262 5.91846 5.33245L3.68192 4.77332C3.19971 4.65277 2.90653 4.16413 3.02708 3.68192ZM18.2998 18.3C18.2998 18.7971 17.8969 19.2 17.3998 19.2C16.9028 19.2 16.4998 18.7971 16.4998 18.3C16.4998 17.803 16.9028 17.4 17.3998 17.4C17.8969 17.4 18.2998 17.803 18.2998 18.3ZM9.29993 19.2C9.79698 19.2 10.1999 18.7971 10.1999 18.3C10.1999 17.803 9.79698 17.4 9.29993 17.4C8.80288 17.4 8.39994 17.803 8.39994 18.3C8.39994 18.7971 8.80288 19.2 9.29993 19.2Z" fill="white"/>
</svg>
