<svg width="24" height="24" viewBox="0 0 24 24" fill="none" xmlns="http://www.w3.org/2000/svg">
<path d="M12 14.25C14.4853 14.25 16.5 12.2353 16.5 9.75C16.5 7.26472 14.4853 5.25 12 5.25C9.51472 5.25 7.5 7.26472 7.5 9.75C7.5 11.0533 8.05405 12.2272 8.93946 13.049C8.28424 12.9379 7.5205 12.7047 6.85064 12.3474C6.07572 11.9341 5.53582 11.4192 5.33579 10.8291C5.27934 10.4777 5.25 10.1173 5.25 9.75C5.25 6.02208 8.27208 3 12 3C15.7279 3 18.75 6.02208 18.75 9.75C18.75 11.8334 17.8061 13.6963 16.3227 14.9345C16.9956 15.1736 17.623 15.4777 18.188 15.8505C19.8961 16.9775 21 18.7205 21 21H19.875C19.2537 21 18.7718 20.4861 18.6037 19.888C18.3503 18.9863 17.7764 18.2745 16.9489 17.7286C15.7633 16.9463 14.032 16.5 12 16.5C9.96798 16.5 8.23674 16.9463 7.05109 17.7286C6.22357 18.2745 5.64969 18.9863 5.39633 19.888C5.22824 20.4861 4.74632 21 4.125 21H3C3 18.7205 4.10392 16.9775 5.81198 15.8505C6.37696 15.4777 7.00436 15.1736 7.67732 14.9345C7.12387 14.4726 6.64553 13.9237 6.26328 13.3088L6.32123 13.3401C7.45482 13.9447 8.81106 14.25 9.75 14.25H12Z" fill="white"/>
</svg>
