<svg width="144" height="144" viewBox="0 0 144 144" fill="none" xmlns="http://www.w3.org/2000/svg">
<path d="M13.0497 69.975L57.1497 66.6C58.0497 66.6 58.7247 65.7 58.4997 64.8L56.0247 24.75C56.0247 23.85 55.1247 23.4 54.4497 23.4L32.6247 25.425C32.1747 25.425 31.7247 25.2 31.2747 24.975L29.2497 22.725C29.0247 22.275 28.3497 22.275 27.8997 22.275L10.7997 23.625C10.1247 23.625 9.44973 24.075 9.44973 24.75L8.54973 29.25C8.54973 29.475 8.54973 29.475 8.54973 29.7L11.2497 68.625C11.4747 69.525 12.1497 70.2 13.0497 69.975Z" fill="#FAA22E"/>
<path d="M12.8247 70.65C11.6997 70.65 10.7997 69.75 10.7997 68.625L7.87473 29.7C7.87473 29.475 7.87473 29.25 7.87473 29.025L8.77473 24.75C8.99973 23.85 9.67473 23.175 10.5747 23.175L27.6747 21.825C28.3497 21.825 29.0247 22.05 29.4747 22.5L31.4997 24.75C31.7247 24.975 31.9497 25.2 32.3997 24.975L54.2247 22.95C55.3497 22.725 56.2497 23.625 56.4747 24.75L58.9497 64.8C58.9497 65.25 58.9497 65.925 58.4997 66.375C58.0497 66.825 57.5997 67.05 56.9247 67.05L12.8247 70.65C13.0497 70.65 12.8247 70.65 12.8247 70.65ZM27.8997 22.95L10.7997 24.3C10.3497 24.3 9.89973 24.75 9.89973 24.975L8.99973 29.475V29.7L11.9247 68.625C11.9247 69.075 12.3747 69.525 13.0497 69.525L57.1497 66.15C57.3747 66.15 57.5997 65.925 57.8247 65.7C58.0497 65.475 58.0497 65.25 58.0497 65.025L55.5747 24.975C55.5747 24.525 55.1247 24.075 54.4497 24.075L32.6247 26.1C31.9497 26.1 31.2747 25.875 30.8247 25.425L28.7997 23.175C28.5747 22.95 28.3497 22.95 27.8997 22.95Z" fill="#FAA22E"/>
<path d="M14.1747 34.65C13.4997 34.65 13.0497 34.2 13.0497 33.525C13.0497 32.85 13.4997 32.4 14.1747 32.4L33.5247 31.05C34.1997 31.05 34.6497 31.5 34.6497 32.175C34.6497 32.85 34.1997 33.3 33.5247 33.3L14.1747 34.65Z" fill="white"/>
<path d="M14.8497 40.5C14.1747 40.5 13.7247 40.05 13.7247 39.375C13.4997 38.7 13.9497 38.25 14.6247 38.25L28.3497 36.9C29.0247 36.9 29.4747 37.35 29.4747 38.025C29.4747 38.7 29.0247 39.15 28.3497 39.15L14.8497 40.5Z" fill="white"/>
<path d="M116.55 87.075H39.3747V132.75H116.55V87.075Z" fill="url(#paint0_linear_1_41988)"/>
<path d="M74.2497 81.225C74.2497 81.225 74.6997 81.675 74.9247 83.925C74.9247 84.6 74.9247 85.275 74.6997 85.95C73.7997 88.2 71.9997 89.775 69.7497 90.225H69.5247L71.7747 99.675C71.9997 100.8 73.5747 101.475 74.4747 100.575L91.1247 87.075L90.2247 86.85C87.9747 86.175 86.3997 84.6 85.4997 82.35L81.8997 72.9" fill="#F9BFA2"/>
<path d="M58.9497 76.5001C58.9497 76.5001 64.7997 79.6501 69.9747 76.2751C75.1497 72.6751 60.9747 59.175 60.9747 59.175L56.9247 69.9751" fill="#A01D4F"/>
<path d="M75.1497 71.325C75.1497 71.325 75.3747 75.825 78.5247 75.15C81.6747 74.475 82.3497 69.075 81.6747 66.375C81.6747 66.375 78.0747 71.55 75.1497 71.325Z" fill="#EA2230"/>
<path d="M78.5247 76.05C77.6247 76.275 76.7247 76.05 76.0497 75.375C74.4747 74.25 74.2497 71.55 74.2497 71.325C74.2497 71.1 74.2497 70.875 74.4747 70.65C74.6997 70.425 74.9247 70.425 75.1497 70.425C77.1747 70.65 80.0997 67.05 80.7747 65.925C80.9997 65.7 81.2247 65.475 81.6747 65.475C82.1247 65.475 82.3497 65.7 82.3497 66.15C82.7997 68.175 82.5747 71.775 81.2247 73.8C80.7747 75.15 79.8747 75.825 78.5247 76.05ZM76.0497 72.225C76.2747 72.9 76.4997 73.8 76.9497 74.25C77.1747 74.475 77.3997 74.7 78.0747 74.475C78.7497 74.25 79.1997 73.8 79.6497 73.125C80.3247 72 80.7747 70.2 80.7747 68.85C79.8747 69.975 78.0747 71.775 76.0497 72.225Z" fill="#0B1C3F"/>
<path d="M82.1247 51.975C81.6747 51.975 81.2247 51.75 81.2247 51.3C80.9997 50.85 80.7747 50.175 80.3247 49.95C80.3247 49.95 80.0997 49.725 79.6497 50.175C79.1997 50.4 78.7497 50.175 78.5247 49.95C78.2997 49.725 78.5247 49.05 78.7497 48.825C79.6497 48.15 80.5497 48.375 80.9997 48.6C82.3497 49.05 83.0247 50.85 83.0247 51.075C83.0247 51.3 82.7997 51.75 82.1247 51.975C82.3497 51.975 82.3497 51.975 82.1247 51.975Z" fill="#0D1D3F"/>
<path d="M71.9997 68.175C71.7747 68.175 71.7747 68.175 71.9997 68.175C69.2997 68.175 67.4997 67.5 67.0497 66.15C66.8247 65.7 66.3747 64.8 70.1997 59.85C70.4247 59.4 71.0997 59.4 71.3247 59.625C71.7747 59.85 71.7747 60.525 71.5497 60.75C69.9747 62.775 68.8497 64.8 68.8497 65.475C69.0747 65.925 70.1997 66.375 71.9997 66.375C72.4497 66.375 72.8997 66.825 72.8997 67.275C72.6747 67.725 72.2247 68.175 71.9997 68.175Z" fill="#0B1C3F"/>
<path d="M80.5497 56.7C80.3247 58.275 79.4247 59.625 78.5247 59.4C77.6247 59.4 77.1747 57.825 77.1747 56.25C77.3997 54.675 78.2997 53.325 78.9747 53.55C80.0997 53.775 80.5497 55.125 80.5497 56.7Z" fill="#0D1D3F"/>
<path d="M62.9997 53.55C62.7747 53.55 62.7747 53.55 62.5497 53.55C62.0997 53.325 61.8747 52.875 61.8747 52.425C61.8747 52.2 62.5497 50.4 63.8997 49.95C64.3497 49.725 65.2497 49.725 66.1497 50.175C66.5997 50.4 66.5997 51.075 66.3747 51.3C66.1497 51.525 65.4747 51.75 65.2497 51.525C64.7997 51.3 64.5747 51.3 64.5747 51.3C64.1247 51.525 63.6747 52.2 63.6747 52.65C63.6747 53.325 63.4497 53.55 62.9997 53.55Z" fill="#0D1D3F"/>
<path d="M69.0747 57.5999C68.8497 57.5999 68.3997 57.5999 68.1747 57.1499C67.9497 56.6999 67.2747 56.2499 66.8247 56.2499C66.1497 56.2499 65.6997 56.9249 65.4747 57.1499C65.2497 57.5999 64.5747 57.5999 64.3497 57.3749C63.8997 57.1499 63.8997 56.4749 64.1247 56.2499C64.3497 56.0249 65.2497 54.45 67.0497 54.45C68.1747 54.45 69.0747 54.8999 69.9747 56.2499C70.1997 56.6999 70.1997 57.1499 69.7497 57.3749C69.2997 57.5999 69.2997 57.5999 69.0747 57.5999Z" fill="#0D1D3F"/>
<path d="M59.1747 49.95C59.1747 49.95 55.7997 64.35 66.5997 76.5C76.0497 87.3 85.9497 76.725 85.9497 76.725L92.4747 71.775L100.125 54.45L84.8247 32.4L59.1747 49.95Z" fill="#F9BFA2"/>
<path d="M75.8247 82.35C71.9997 82.35 68.6247 80.55 65.6997 77.175C54.6747 64.8 57.8247 50.4 58.0497 49.725V49.275L85.0497 30.825L101.25 54.225L93.1497 72.45L86.3997 77.4C86.6247 77.625 82.1247 82.35 75.8247 82.35ZM60.2997 50.625C59.8497 53.1 58.2747 65.25 67.4997 75.6C69.9747 78.525 72.8997 79.875 75.8247 80.1H76.0497C81.2247 80.1 85.2747 75.825 85.2747 75.825L91.7997 71.1L98.9997 54.675L84.8247 33.975L60.2997 50.625Z" fill="#D47C53"/>
<path d="M74.6997 70.4251C74.6997 70.4251 74.6997 67.2751 77.3997 68.4001C77.3997 68.4001 77.8497 65.7001 81.4497 66.3751C81.4497 66.3751 82.3497 70.6501 79.1997 71.7751C75.8247 72.9001 74.6997 70.4251 74.6997 70.4251Z" fill="#EC6564"/>
<path d="M75.1497 71.325C75.1497 71.325 76.0497 71.55 77.8497 72.675C77.8497 72.675 78.2997 65.025 81.6747 66.375C81.6747 66.375 83.9247 75.825 79.1997 76.725C74.6997 77.625 75.1497 71.325 75.1497 71.325Z" fill="#EC6564"/>
<path d="M74.6997 70.425C74.6997 70.425 74.6997 75.375 78.2997 74.7C81.8997 74.025 82.7997 68.175 82.1247 65.25C82.1247 65.25 78.0747 70.875 74.6997 70.425Z" fill="#EA2230"/>
<path d="M82.3497 52.875C82.1247 52.875 81.8997 52.875 81.6747 52.65C80.9997 52.2 79.1997 50.85 78.0747 51.525C77.6247 51.75 76.9497 51.525 76.4997 51.075C76.2747 50.625 76.4997 49.95 76.9497 49.5C79.6497 47.925 83.0247 50.625 83.0247 50.85C83.4747 51.3 83.4747 51.975 83.2497 52.425C83.0247 52.65 82.5747 52.875 82.3497 52.875Z" fill="#0D1D3F"/>
<path d="M71.0997 68.4001C68.3997 68.4001 66.5997 67.5001 66.1497 66.1501C65.9247 65.2501 66.3747 62.7751 67.9497 58.9501C68.1747 58.2751 68.8497 58.05 69.5247 58.275C70.1997 58.5 70.4247 59.1751 70.1997 59.8501C69.2997 62.1001 68.3997 65.0251 68.3997 65.7001C68.3997 65.9251 69.5247 66.3751 71.0997 66.3751C71.7747 66.3751 72.2247 66.8251 72.2247 67.5001C72.2247 67.9501 71.7747 68.4001 71.0997 68.4001Z" fill="#0B1C3F"/>
<path d="M80.0997 57.15C79.8747 58.725 78.9747 59.85 78.0747 59.85C77.1747 59.625 76.7247 58.275 76.9497 56.7C77.1747 55.125 78.0747 54 78.9747 54C79.8747 54.225 80.3247 55.575 80.0997 57.15Z" fill="#0D1D3F"/>
<path d="M62.9997 53.775C62.7747 53.775 62.3247 53.55 62.0997 53.325C61.6497 52.875 61.6497 52.2 62.0997 51.75C62.5497 51.3 65.6997 48.375 68.3997 50.175C68.8497 50.625 69.0747 51.3 68.6247 51.75C68.3997 52.2 67.4997 52.425 67.0497 51.975C66.1497 51.3 64.1247 52.65 63.4497 53.325C63.4497 53.775 63.2247 53.775 62.9997 53.775Z" fill="#0D1D3F"/>
<path d="M68.8497 58.0499C68.3997 58.0499 68.1747 57.8249 67.9497 57.5999C67.7247 57.1499 67.2747 56.6999 66.8247 56.6999C66.3747 56.6999 65.6997 57.1499 65.6997 57.5999C65.2497 58.0499 64.5747 58.2749 64.1247 57.8249C63.6747 57.3749 63.4497 56.6999 63.8997 56.2499C64.1247 56.0249 65.2497 54.45 67.0497 54.45C68.1747 54.45 69.0747 55.1249 69.9747 56.2499C70.4247 56.6999 70.1997 57.3749 69.7497 57.8249C69.2997 58.0499 69.0747 58.0499 68.8497 58.0499Z" fill="#0D1D3F"/>
<path d="M69.7497 21.825C69.7497 21.825 64.1247 13.05 56.6997 10.35C49.0497 7.65 45.6747 8.775 44.7747 12.6C44.0997 15.975 47.6997 23.175 52.1997 26.325C53.5497 27.225 54.2247 29.025 53.9997 30.825C53.7747 32.175 53.9997 33.525 54.8997 34.2C56.9247 36.225 68.3997 30.15 68.3997 30.15L72.8997 29.475" fill="#E92230"/>
<path d="M56.2497 35.775C55.3497 35.775 54.4497 35.55 53.9997 35.1C53.0997 34.2 52.6497 32.625 52.8747 30.825C53.0997 29.475 52.4247 28.125 51.5247 27.45C46.7997 24.075 42.7497 16.65 43.6497 12.6C44.0997 10.8 44.9997 9.44998 46.3497 8.77498C48.5997 7.64998 51.9747 7.87498 56.9247 9.67498C64.7997 12.6 70.4247 21.15 70.6497 21.6L68.8497 22.5C68.8497 22.5 63.4497 13.95 56.2497 11.475C51.9747 9.89998 49.0497 9.67498 47.4747 10.575C46.5747 11.025 46.1247 11.925 45.8997 13.05C45.2247 15.75 48.5997 22.5 52.8747 25.425C54.6747 26.55 55.5747 28.8 55.3497 31.05C55.3497 31.95 55.3497 33.075 55.7997 33.525C56.6997 34.2 62.3247 32.175 67.9497 29.25L68.3997 29.025L72.8997 28.35L73.1247 30.6L68.6247 31.5C65.0247 33.3 59.6247 35.775 56.2497 35.775Z" fill="#0B1C3F"/>
<path d="M69.5247 24.75C69.5247 24.75 59.1747 17.325 57.8247 20.25C56.4747 23.175 61.8747 24.075 61.8747 24.075" fill="#E92230"/>
<path d="M69.5247 25.875C69.2997 25.875 69.0747 25.875 68.8497 25.65C64.5747 22.5 59.6247 20.25 58.7247 20.7C58.4997 21.15 58.7247 21.375 58.7247 21.375C59.1747 22.05 60.9747 22.725 62.0997 22.95C62.7747 22.95 63.2247 23.625 62.9997 24.3C62.9997 24.975 62.3247 25.425 61.6497 25.2C60.9747 25.2 57.8247 24.525 56.6997 22.5C56.4747 21.825 56.2497 20.925 56.6997 19.8C56.9247 19.125 57.5997 18.675 58.2747 18.675C61.4247 17.775 68.6247 22.95 70.1997 23.85C70.6497 24.3 70.8747 24.975 70.4247 25.425C70.1997 25.875 69.9747 25.875 69.5247 25.875Z" fill="#0B1C3F"/>
<path d="M75.1497 19.8C75.1497 19.8 79.1997 9.90002 86.1747 5.62502C93.1497 1.35002 96.7497 1.57502 98.0997 5.17502C99.4497 8.32502 96.9747 16.2 92.9247 20.25C91.7997 21.375 91.3497 23.4 91.7997 25.2C92.2497 26.325 92.2497 27.675 91.5747 28.8C89.9997 31.275 77.6247 27.9 77.6247 27.9L73.1247 28.35" fill="#E92230"/>
<path d="M88.4247 30.825C85.0497 30.825 80.3247 29.7 77.8497 29.025L73.5747 29.475L73.3497 27.225L78.0747 26.775H78.2997C84.1497 28.35 90.2247 29.025 90.8997 28.125C91.3497 27.45 91.1247 26.325 90.8997 25.425C90.2247 23.4 90.8997 20.925 92.2497 19.575C95.8497 15.75 98.0997 8.32501 97.1997 5.85001C96.7497 4.72501 96.0747 4.05001 95.3997 3.82501C93.5997 3.37501 90.8997 4.27501 86.8497 6.75001C80.3247 10.8 76.2747 20.25 76.2747 20.475L74.2497 19.575C74.4747 19.125 78.5247 9.45001 85.7247 4.95001C90.4497 2.02501 93.5997 1.12501 96.0747 1.80001C97.6497 2.25001 98.5497 3.37501 99.4497 5.17501C101.025 8.77501 98.3247 17.1 94.0497 21.375C93.1497 22.275 92.6997 23.85 93.1497 25.2C93.5997 27 93.5997 28.575 92.6997 29.7C92.0247 30.375 90.4497 30.825 88.4247 30.825Z" fill="#0B1C3F"/>
<path d="M76.9497 22.725C76.9497 22.725 85.9497 13.275 87.7497 15.75C89.5497 18.225 84.3747 20.475 84.3747 20.475" fill="#E92230"/>
<path d="M76.9497 23.85C76.7247 23.85 76.4997 23.85 76.2747 23.625C75.8247 23.175 75.8247 22.5 76.2747 22.05C78.0747 20.25 83.9247 14.4 87.0747 14.4C87.0747 14.4 87.0747 14.4 87.2997 14.4C87.9747 14.4 88.6497 14.85 88.8747 15.3C89.5497 16.2 89.5497 16.875 89.3247 17.775C88.6497 20.025 85.4997 21.375 85.0497 21.6C84.3747 21.825 83.9247 21.6 83.4747 20.925C83.2497 20.25 83.4747 19.8 84.1497 19.35C85.2747 18.9 86.8497 17.775 87.0747 17.1C87.0747 16.875 87.0747 16.875 86.8497 16.425C85.9497 16.2 81.4497 19.575 77.8497 23.4C77.6247 23.85 77.1747 23.85 76.9497 23.85Z" fill="#0B1C3F"/>
<path d="M76.0497 18C76.0497 18 75.5997 17.55 74.0247 18.675L73.7997 18.9C73.5747 19.125 71.9997 19.8 70.4247 19.125C68.6247 18.45 68.1747 19.125 68.1747 19.125C67.0497 21.6 69.5247 26.55 69.5247 26.55L71.3247 26.1L76.0497 25.425C76.2747 25.65 77.8497 20.25 76.0497 18Z" fill="#E92230"/>
<path d="M69.0747 27.9L68.6247 27C68.3997 26.55 65.6997 21.6 67.0497 18.675L67.2747 18.45C67.4997 18 68.3997 17.325 70.6497 18.225C71.9997 18.675 73.1247 18 73.3497 18C75.3747 16.65 76.2747 16.875 76.7247 17.325L76.9497 17.55C78.9747 20.025 77.3997 25.425 77.1747 26.1L76.9497 26.775L70.4247 27.675L69.0747 27.9ZM69.0747 20.025C68.8497 21.6 69.5247 23.85 70.1997 25.2L72.4497 24.75L75.3747 24.3C75.8247 22.5 76.0497 20.25 75.5997 18.9C75.3747 18.9 75.1497 19.125 74.9247 19.35C74.6997 19.35 74.6997 19.575 74.4747 19.575C73.7997 20.25 71.9997 20.925 69.9747 20.25C69.5247 20.25 69.2997 20.025 69.0747 20.025Z" fill="#0B1C3F"/>
<path d="M71.7747 19.575C71.7747 19.575 70.8747 21.375 71.7747 23.4V19.575Z" fill="#E92230"/>
<path d="M71.7747 24.525C71.3247 24.525 70.8747 24.3 70.6497 23.85C69.5247 21.375 70.6497 19.125 70.6497 19.125C70.8747 18.45 71.5497 18.225 72.2247 18.675C72.6747 18.9 73.1247 19.575 72.6747 20.25C72.6747 20.25 71.9997 21.825 72.6747 23.175C72.8997 23.85 72.6747 24.3 72.2247 24.75C72.2247 24.525 71.9997 24.525 71.7747 24.525Z" fill="#0B1C3F"/>
<path d="M107.55 54.675C107.55 48.375 106.65 37.125 96.0747 30.825C82.5747 22.95 77.3997 23.85 67.7247 25.65C57.5997 27.675 51.7497 33.975 49.0497 44.325C48.1497 47.475 47.2497 51.075 47.2497 54.45C47.0247 57.825 47.2497 60.975 47.0247 64.35C46.7997 66.6 46.5747 69.525 44.9997 71.325C43.8747 72.675 42.7497 74.7 44.3247 76.05C44.7747 76.5 45.2247 76.725 45.6747 76.95C48.5997 78.3 52.8747 76.95 55.3497 74.475C55.1247 74.7 56.6997 76.725 56.9247 76.95C57.3747 77.625 58.0497 78.075 58.7247 78.525C59.8497 79.2 65.4747 79.65 64.1247 77.175C62.0997 73.125 60.7497 68.625 59.8497 64.125C59.1747 60.075 58.0497 53.775 60.7497 50.4C60.9747 50.4 60.0747 50.4 60.2997 50.625C60.5247 50.625 61.1997 50.85 62.0997 50.4C62.5497 50.4 62.3247 50.625 62.5497 50.4C64.3497 51.3 67.0497 51.075 69.0747 50.175C69.5247 49.95 69.9747 49.725 70.4247 49.5H70.6497L70.8747 49.275C71.0997 49.05 71.0997 49.05 71.3247 48.825C72.4497 47.7 73.3497 46.35 74.2497 44.55C75.1497 42.525 75.8247 40.05 76.2747 37.8C76.2747 37.8 76.2747 37.8 76.4997 38.025C76.9497 38.7 77.3997 39.375 77.8497 40.275C79.1997 43.2 77.8497 47.925 74.9247 49.95L74.6997 50.175C74.6997 50.4 74.6997 50.4 74.9247 50.4C74.9247 50.4 77.6247 51.75 80.0997 50.625C80.0997 50.625 80.5497 50.4 81.2247 49.95C81.4497 50.175 81.8997 50.4 82.5747 50.625L82.7997 50.85L83.2497 50.625C83.6997 50.625 84.1497 50.625 84.8247 50.4C86.1747 50.175 87.2997 49.5 88.1997 48.6C88.1997 48.6 88.1997 48.6 88.1997 48.825C88.1997 48.825 89.3247 51.3 90.2247 56.925C91.1247 62.775 90.4497 67.05 86.6247 75.6C85.9497 77.175 85.4997 77.85 85.9497 78.3C86.1747 78.525 86.1747 78.525 86.3997 78.525C87.0747 78.75 88.1997 78.3 89.9997 77.4C90.2247 77.4 90.4497 77.175 90.6747 77.175C91.7997 76.5 92.6997 76.05 93.5997 75.15C94.4997 75.375 98.3247 75.825 101.925 70.65C103.725 68.4 107.775 62.325 107.55 54.675ZM76.0497 49.95C76.0497 50.175 76.0497 50.175 76.0497 49.95V49.95ZM88.6497 48.15C88.6497 48.375 88.6497 48.375 88.6497 48.15V48.15Z" fill="#ED1F2F"/>
<path d="M51.2997 49.95C50.6247 49.95 50.1747 49.275 50.1747 48.825C50.1747 48.6 50.6247 41.175 56.2497 35.325C56.6997 34.875 57.3747 34.875 57.8247 35.325C58.2747 35.775 58.2747 36.45 57.8247 36.9C52.8747 42.3 52.4247 49.05 52.4247 49.05C52.4247 49.5 51.9747 49.95 51.2997 49.95Z" fill="white"/>
<path d="M56.0247 45.675H55.7997C55.1247 45.45 54.8997 45 54.8997 44.325C54.8997 44.1 55.7997 40.5 58.7247 36.675C59.1747 36.225 59.8497 36 60.2997 36.45C60.7497 36.9 60.9747 37.575 60.5247 38.025C57.8247 41.4 57.1497 44.775 57.1497 44.775C56.9247 45.225 56.4747 45.675 56.0247 45.675Z" fill="white"/>
<path d="M61.1997 51.975C59.3997 51.975 58.2747 51.075 58.0497 50.85C57.5997 50.4 57.5997 49.725 57.8247 49.275C58.2747 48.825 58.9497 48.825 59.3997 49.05C59.6247 49.275 60.7497 50.175 62.5497 49.275C62.9997 49.05 63.6747 49.275 64.1247 49.725C64.3497 50.175 64.1247 50.85 63.6747 51.3C62.7747 51.75 61.8747 51.975 61.1997 51.975Z" fill="#A01D4F"/>
<path d="M65.0247 52.2C63.6747 52.2 62.5497 51.975 61.8747 51.525C61.4247 51.3 61.4247 50.85 61.4247 50.4C61.4247 49.95 61.8747 49.725 62.0997 49.5C62.0997 49.5 63.6747 48.825 65.6997 45.9C66.8247 44.325 67.0497 42.525 67.0497 42.525C67.0497 41.85 67.4997 41.4 68.1747 41.4C68.8497 41.4 69.2997 41.85 69.2997 42.525C69.2997 42.525 69.0747 45 67.7247 47.25C66.8247 48.375 66.1497 49.275 65.2497 49.95C67.2747 49.95 69.9747 49.05 71.0997 47.925C73.3497 45.675 75.5997 41.175 75.3747 38.025C75.3747 37.575 75.5997 36.9 76.2747 36.9C76.7247 36.675 77.3997 36.9 77.6247 37.575L78.5247 39.375C79.6497 41.625 79.8747 43.875 79.1997 46.125C78.7497 47.925 77.6247 49.275 76.9497 49.95C76.9497 49.95 76.9497 49.95 77.1747 49.95C79.4247 49.95 80.3247 49.725 81.2247 48.15C82.1247 46.8 82.3497 44.775 81.8997 42.75C81.6747 42.075 82.1247 41.625 82.7997 41.4C83.4747 41.175 83.9247 41.625 84.1497 42.3C84.8247 45 84.5997 47.475 83.2497 49.5C81.6747 51.975 79.8747 52.2 77.3997 52.425C76.0497 52.425 75.1497 52.2 74.6997 51.525C74.2497 50.85 74.2497 50.175 74.4747 49.725C74.4747 49.5 74.6997 49.275 74.9247 49.05C74.9247 49.05 76.7247 48.15 77.3997 45.675C77.6247 44.55 77.6247 43.425 77.3997 42.3C76.4997 45 74.9247 47.925 73.1247 49.725C71.0997 51.075 67.7247 52.2 65.0247 52.2Z" fill="#A01D4F"/>
<path d="M84.1497 51.975C82.3497 51.975 80.7747 51.075 80.7747 51.075C80.3247 50.625 80.0997 49.95 80.5497 49.5C80.9997 49.05 81.6747 48.825 82.1247 49.275C82.3497 49.275 84.3747 50.625 86.3997 49.05C86.3997 49.05 88.1997 47.475 86.6247 43.875C86.3997 43.2 86.6247 42.75 87.2997 42.3C87.9747 42.075 88.4247 42.3 88.8747 42.975C91.1247 48.375 88.1997 50.85 87.9747 50.85C86.3997 51.525 85.2747 51.975 84.1497 51.975Z" fill="#A01D4F"/>
<path d="M87.7497 79.875C87.2997 79.875 86.6247 79.425 86.6247 78.975C86.6247 78.3 87.0747 77.85 87.5247 77.625C87.7497 77.625 94.7247 76.5 95.3997 66.6C95.3997 65.925 96.0747 65.475 96.5247 65.475C97.1997 65.475 97.6497 66.15 97.6497 66.6C96.9747 78.525 87.9747 79.875 87.7497 79.875Z" fill="#A01D4F"/>
<path d="M94.7247 76.5C93.8247 76.5 93.3747 76.275 93.3747 76.275C92.6997 76.05 92.4747 75.375 92.6997 74.7C92.9247 74.25 93.5997 73.8 94.0497 74.025C94.2747 74.025 96.7497 74.925 101.025 69.75C105.525 64.35 107.325 57.15 106.2 49.5C104.85 40.95 99.6747 33.525 92.9247 29.7C85.2747 25.2 75.8247 23.85 68.1747 26.325C63.6747 27.675 59.6247 29.7 56.2497 32.4C55.7997 32.85 55.1247 32.625 54.6747 32.175C54.2247 31.725 54.4497 31.05 54.8997 30.6C58.4997 27.675 62.7747 25.425 67.4997 24.075C75.8247 21.6 85.7247 22.95 94.0497 27.675C101.475 31.95 106.875 40.05 108.45 49.05C109.8 57.375 107.775 65.25 102.825 71.1C99.2247 75.825 96.5247 76.5 94.7247 76.5Z" fill="#A01D4F"/>
<path d="M61.4247 80.775C60.9747 80.775 60.5247 80.775 60.2997 80.775C60.2997 80.775 57.8247 80.55 55.7997 78.075C53.3247 75.15 52.6497 69.975 53.7747 63.225C53.7747 62.55 54.4497 62.1 55.1247 62.325C55.7997 62.325 56.2497 63 56.0247 63.675C54.8997 71.325 56.2497 74.925 57.5997 76.725C58.9497 78.525 60.5247 78.525 60.5247 78.525C61.8747 78.75 63.4497 78.525 63.6747 78.3C63.4497 77.85 63.6747 77.175 64.1247 76.725C64.7997 76.5 65.2497 76.725 65.4747 77.175C65.9247 78.3 65.6997 78.975 65.4747 79.425C64.5747 80.55 62.5497 80.775 61.4247 80.775Z" fill="#A01D4F"/>
<path d="M49.0497 78.975C48.5997 78.975 44.7747 78.75 42.9747 76.725C42.2997 75.825 42.0747 74.925 42.2997 73.8C42.5247 72.225 43.1997 71.55 43.8747 70.875C44.7747 69.75 45.8997 68.4 45.8997 62.775V59.85C45.8997 51.975 46.1247 46.8 49.9497 38.25C49.9497 38.25 51.5247 34.2 54.8997 30.825C55.3497 30.375 56.0247 30.375 56.4747 30.825C56.9247 31.275 56.9247 31.95 56.4747 32.4C53.5497 35.325 52.1997 38.925 52.1997 38.925C48.3747 47.25 48.3747 51.975 48.3747 59.625V62.55C48.1497 69.075 47.0247 70.65 45.8997 72C45.4497 72.675 44.9997 73.125 44.7747 74.025C44.7747 74.475 44.7747 74.925 44.9997 74.925C45.6747 75.825 47.9247 76.275 49.2747 76.275C49.2747 76.275 51.5247 76.275 54.4497 73.8C54.8997 73.35 55.5747 73.35 56.0247 74.025C56.4747 74.475 56.4747 75.15 55.7997 75.6C52.4247 78.75 49.7247 78.975 49.0497 78.975Z" fill="#A01D4F"/>
<path d="M74.9247 71.3251C73.7997 71.3251 73.1247 70.875 73.1247 70.875C72.6747 70.425 72.4497 69.75 72.8997 69.3C73.3497 68.85 74.0247 68.6251 74.4747 69.075C75.1497 69.5251 77.6247 69.3 81.6747 64.575C82.1247 64.125 82.7997 64.125 83.2497 64.575C83.6997 65.025 83.6997 65.7 83.2497 66.15C79.4247 70.425 76.4997 71.3251 74.9247 71.3251Z" fill="#A01D4F"/>
<path d="M83.4747 66.5999C83.0247 66.5999 82.5747 66.3749 82.3497 65.9249C82.1247 65.9249 81.8997 65.6999 81.6747 65.6999C80.9997 65.4749 80.7747 65.0249 80.7747 64.3499C80.9997 63.6749 81.4497 63.45 82.1247 63.45C82.5747 63.45 84.1497 63.8999 84.5997 65.2499C84.8247 65.9249 84.3747 66.3749 83.6997 66.5999H83.4747Z" fill="#A01D4F"/>
<path d="M77.3997 75.6C76.9497 75.6 76.4997 75.6 76.0497 75.375C75.1497 74.925 74.6997 74.025 74.2497 72.9C74.0247 72.225 74.4747 71.775 75.1497 71.55C75.8247 71.325 76.2747 71.775 76.4997 72.45C76.7247 73.125 76.9497 73.35 77.1747 73.575C77.3997 73.8 77.8497 73.575 78.0747 73.575C79.1997 73.125 80.0997 72.225 80.5497 71.1C80.9997 69.975 81.4497 68.4 80.9997 67.05C80.7747 66.375 81.2247 65.925 81.8997 65.7C82.5747 65.475 83.0247 65.925 83.2497 66.6C83.4747 68.175 83.2497 69.975 82.5747 71.775C81.8997 73.575 80.5497 74.925 78.9747 75.6C78.2997 75.6 77.8497 75.6 77.3997 75.6Z" fill="#A01D4F"/>
<path d="M88.6497 71.325C88.4247 71.325 88.4247 71.325 88.1997 71.325C87.5247 71.1 87.2997 70.425 87.5247 69.975C91.5747 58.275 87.2997 48.375 87.2997 48.15C87.0747 47.475 87.2997 47.025 87.7497 46.575C88.4247 46.35 88.8747 46.575 89.3247 47.025C89.5497 47.475 94.2747 57.825 89.7747 70.425C89.5497 71.1 89.0997 71.325 88.6497 71.325Z" fill="#A01D4F"/>
<path d="M53.7747 128.475C53.7747 128.475 49.9497 125.325 52.8747 114.75C53.7747 111.375 56.2497 106.875 54.8997 103.725" stroke="#0B1C3F" stroke-miterlimit="10" stroke-linecap="round"/>
<path d="M26.3247 97.6501L33.7497 123.75C34.4247 126.45 35.9997 128.7 37.7997 129.6C40.9497 130.95 45.2247 131.4 46.1247 123.3C46.7997 116.775 31.4997 82.8 31.4997 82.8" fill="#FBC0A4"/>
<path d="M69.2997 91.35L72.2247 100.8C72.2247 100.8 73.1247 103.275 76.2747 100.35C79.4247 97.425 92.4747 86.625 92.4747 86.625" stroke="#0B1C3F" stroke-miterlimit="10" stroke-linecap="round"/>
<path d="M28.5747 97.65C28.5747 97.65 26.7747 99.225 21.5997 98.55C16.4247 97.875 11.9247 95.175 11.9247 95.175C11.9247 95.175 7.19973 92.925 7.64973 91.35C8.09973 89.55 9.44973 90 9.44973 90C9.44973 90 4.72473 87.525 5.62473 85.05C6.29973 82.8 10.3497 84.15 10.3497 84.15C10.3497 84.15 7.42473 82.35 8.32473 81C9.67473 78.3 25.1997 81.45 25.1997 81.45C25.1997 81.45 23.8497 74.025 26.9997 74.25C30.3747 74.475 33.0747 86.85 33.0747 86.85C33.0747 86.85 35.0997 94.05 28.5747 97.65Z" fill="#F9BFA2"/>
<path d="M137.25 32.4C135.45 39.825 126.9 44.325 118.125 42.075C109.35 39.825 103.95 32.175 105.75 24.525C107.55 17.1 116.1 12.6 124.875 14.85C133.65 17.1 139.275 24.975 137.25 32.4Z" fill="#8CC63F"/>
<path d="M122.625 43.875C121.05 43.875 119.475 43.65 117.9 43.2C108.675 40.95 102.6 32.4 104.625 24.3C105.525 20.25 108.225 17.1 112.275 15.075C116.1 13.05 120.6 12.6 125.1 13.725C129.6 14.85 133.425 17.325 135.9 20.925C138.375 24.525 139.275 28.575 138.375 32.625C136.8 39.6 130.275 43.875 122.625 43.875ZM120.6 15.525C118.125 15.525 115.65 15.975 113.4 17.1C110.025 18.9 107.775 21.6 106.875 24.975C105.075 31.95 110.25 39.15 118.35 41.175C126.45 43.2 134.325 39.15 136.125 32.175C137.025 28.8 136.125 25.425 134.1 22.275C131.85 19.125 128.475 16.875 124.65 15.975C123.3 15.75 121.95 15.525 120.6 15.525Z" fill="#61BB4A"/>
<path d="M114.075 39.15C114.075 39.15 110.475 51.3 101.025 59.625C101.025 59.625 108 59.85 121.725 40.95" fill="#8CC63F"/>
<path d="M101.25 60.75C100.8 60.75 100.35 60.525 100.125 60.075C99.8997 59.625 100.125 59.175 100.35 58.95C109.35 50.85 112.95 39.15 112.95 38.925C113.175 38.25 113.625 38.025 114.3 38.25C114.975 38.475 115.2 39.15 114.975 39.6C114.75 40.05 112.275 48.825 105.525 56.475C108.9 54.225 113.85 49.725 120.6 40.5C121.05 40.05 121.725 39.825 122.175 40.275C122.625 40.725 122.85 41.4 122.4 41.85C109.575 60.075 102.375 60.75 101.25 60.75Z" fill="#61BB4A"/>
<path d="M113.625 34.425C112.95 34.425 112.5 33.75 112.5 33.3L113.175 23.85C113.175 23.175 113.85 22.725 114.3 22.725C114.975 22.725 115.425 23.4 115.425 23.85L114.75 33.3C114.75 33.975 114.075 34.425 113.625 34.425Z" fill="white"/>
<path d="M117.9 34.875C117 34.65 116.775 34.2 116.775 33.525L118.575 23.175C118.575 22.5 119.25 22.05 119.925 22.275C120.6 22.275 121.05 22.95 120.825 23.625L119.025 33.975C119.025 34.425 118.575 34.875 117.9 34.875Z" fill="white"/>
<path d="M113.85 29.475C113.175 29.475 112.725 29.025 112.725 28.35C112.725 27.675 113.175 27.225 113.85 27.225L118.8 26.775C119.475 26.775 119.925 27.225 119.925 27.9C119.925 28.575 119.475 29.025 118.8 29.025L113.85 29.475C114.075 29.475 114.075 29.475 113.85 29.475Z" fill="white"/>
<path d="M122.4 36C122.175 35.775 122.175 36 122.4 36C121.725 36 121.275 35.325 121.275 34.65L122.625 25.2C122.625 24.525 123.3 24.075 123.975 24.3C124.65 24.3 125.1 24.975 124.875 25.65L123.525 35.1C123.3 35.55 122.85 36 122.4 36Z" fill="white"/>
<path d="M127.575 32.175H127.35C126.675 31.95 126.45 31.5 126.45 30.825L128.25 23.4C128.475 22.725 128.925 22.5 129.6 22.5C130.275 22.725 130.5 23.175 130.5 23.85L128.7 31.5C128.475 31.95 128.025 32.175 127.575 32.175Z" fill="white"/>
<path d="M126.675 35.775H126.45C125.775 35.55 125.55 35.1 125.55 34.425V34.2C125.775 33.525 126.225 33.3 126.9 33.3C127.575 33.525 127.8 33.975 127.8 34.65C127.575 35.325 127.125 35.775 126.675 35.775Z" fill="white"/>
<path d="M122.85 85.275H39.1497V132.075H122.85V85.275Z" fill="url(#paint1_linear_1_41988)"/>
<path d="M117 86.4C119.7 86.4 121.725 88.65 121.5 91.35L117.675 129.15C117.675 130.05 116.775 130.95 115.65 130.95H46.7997C45.8997 130.95 44.9997 130.275 44.7747 129.15L40.4997 91.35C40.2747 88.65 42.2997 86.4 44.9997 86.4H60.5247H60.7497H101.025H101.475H117ZM117 84.15H101.475H101.025H60.7497H60.2997H44.7747C42.9747 84.15 41.1747 85.05 39.8247 86.4C38.4747 87.75 38.0247 89.775 38.0247 91.575L42.2997 129.6C42.5247 131.625 44.3247 133.425 46.5747 133.425H115.65C117.9 133.425 119.7 131.85 119.925 129.6L123.75 91.575C123.975 89.775 123.3 87.75 121.95 86.4C120.6 85.05 118.8 84.15 117 84.15Z" fill="white"/>
<path d="M118.35 132.075H43.1997V140.625H118.35V132.075Z" fill="url(#paint2_linear_1_41988)"/>
<path d="M116.1 133.2C116.775 133.2 117.45 133.875 117.45 134.55V138.15C117.45 138.825 116.775 139.5 116.1 139.5H45.6747C44.9997 139.5 44.3247 138.825 44.3247 138.15V134.55C44.3247 133.875 44.9997 133.2 45.6747 133.2H116.1ZM116.1 130.95H45.6747C43.6497 130.95 42.0747 132.525 42.0747 134.55V138.15C42.0747 140.175 43.6497 141.75 45.6747 141.75H115.875C117.9 141.75 119.475 140.175 119.475 138.15V134.55C119.7 132.525 117.9 130.95 116.1 130.95Z" fill="white"/>
<path d="M83.9247 122.625C81.2247 124.425 77.1747 122.85 76.9497 119.475C76.9497 119.025 76.9497 118.575 76.9497 118.125C76.9497 111.825 76.9497 105.525 76.9497 99.225C76.9497 99 76.9497 98.775 76.9497 98.55C76.7247 98.55 76.4997 98.55 76.2747 98.55C73.7997 98.55 71.3247 98.55 68.6247 98.55C68.1747 98.55 67.9497 98.325 67.9497 97.875C67.9497 97.2 67.9497 96.525 67.9497 95.625C67.9497 93.825 69.2997 92.25 71.3247 92.25C73.3497 92.25 75.1497 92.25 77.1747 92.25C80.3247 92.25 82.7997 94.95 82.7997 98.325C82.7997 104.625 82.7997 111.15 82.7997 117.45C82.7997 118.8 83.0247 119.925 83.2497 121.275C83.4747 121.725 83.6997 122.175 83.9247 122.625Z" fill="white"/>
<path d="M80.7747 92.475C80.9997 92.475 81.2247 92.475 81.4497 92.475C84.5997 92.475 87.9747 92.475 91.1247 92.475C91.5747 92.475 91.7997 92.475 91.7997 92.925C91.7997 94.275 91.7997 95.625 91.7997 96.975C91.7997 97.875 91.3497 98.55 90.2247 98.55C88.6497 98.55 87.0747 98.55 85.7247 98.55C84.8247 98.55 84.1497 98.1 84.1497 97.2C83.6997 95.4 83.0247 93.825 81.2247 92.925C80.9997 92.7 80.9997 92.7 80.7747 92.475Z" fill="white"/>
<path d="M79.6497 57.6C79.4247 57.6 79.4247 57.6 79.4247 57.6C78.9747 57.6 78.5247 57.15 78.7497 56.7C78.7497 56.25 79.1997 56.025 79.6497 56.025C79.6497 56.025 80.5497 56.025 80.9997 55.35C81.2247 54.9 81.6747 54.9 82.1247 54.9C82.5747 55.125 82.7997 55.575 82.5747 56.025C81.8997 57.375 80.5497 57.6 79.6497 57.6Z" fill="#0D1D3F"/>
<defs>
<linearGradient id="paint0_linear_1_41988" x1="39.2373" y1="109.821" x2="114.316" y2="109.821" gradientUnits="userSpaceOnUse">
<stop stop-color="#FAA22D"/>
<stop offset="0.0368206" stop-color="#F7922F"/>
<stop offset="0.1088" stop-color="#F37830"/>
<stop offset="0.1842" stop-color="#F05F31"/>
<stop offset="0.2629" stop-color="#EE4931"/>
<stop offset="0.3462" stop-color="#EC3630"/>
<stop offset="0.4371" stop-color="#EB2730"/>
<stop offset="0.5503" stop-color="#EB2230"/>
<stop offset="0.8147" stop-color="#B82028"/>
<stop offset="1" stop-color="#B82028"/>
</linearGradient>
<linearGradient id="paint1_linear_1_41988" x1="39.1605" y1="108.708" x2="122.523" y2="108.708" gradientUnits="userSpaceOnUse">
<stop stop-color="#FAA22E"/>
<stop offset="0.0383201" stop-color="#F7912F"/>
<stop offset="0.1101" stop-color="#F47730"/>
<stop offset="0.1853" stop-color="#F15F2F"/>
<stop offset="0.2637" stop-color="#EF482F"/>
<stop offset="0.3467" stop-color="#EE342F"/>
<stop offset="0.4374" stop-color="#EE252F"/>
<stop offset="0.5503" stop-color="#ED1F2F"/>
<stop offset="0.8147" stop-color="#B92028"/>
<stop offset="1" stop-color="#B92028"/>
</linearGradient>
<linearGradient id="paint2_linear_1_41988" x1="43.2915" y1="136.282" x2="118.449" y2="136.282" gradientUnits="userSpaceOnUse">
<stop stop-color="#FAA22E"/>
<stop offset="0.0383201" stop-color="#F7912F"/>
<stop offset="0.1101" stop-color="#F47730"/>
<stop offset="0.1853" stop-color="#F15F2F"/>
<stop offset="0.2637" stop-color="#EF482F"/>
<stop offset="0.3467" stop-color="#EE342F"/>
<stop offset="0.4374" stop-color="#EE252F"/>
<stop offset="0.5503" stop-color="#ED1F2F"/>
<stop offset="0.8147" stop-color="#B92028"/>
<stop offset="1" stop-color="#B92028"/>
</linearGradient>
</defs>
</svg>
